<svg xmlns="http://www.w3.org/2000/svg" version="1.1" xmlns:xlink="http://www.w3.org/1999/xlink" xmlns:svgjs="http://svgjs.dev/svgjs" width="1500" height="405" viewBox="0 0 1500 405"><g transform="matrix(1,0,0,1,-0.9090909090909918,-0.07322584251599551)"><svg viewBox="0 0 396 107" data-background-color="#ffffff" preserveAspectRatio="xMidYMid meet" height="405" width="1500" xmlns="http://www.w3.org/2000/svg" xmlns:xlink="http://www.w3.org/1999/xlink"><g id="tight-bounds" transform="matrix(1,0,0,1,0.2400000000000091,0.0193460867881754)"><svg viewBox="0 0 395.52 106.96130782642363" height="106.96130782642363" width="395.52"><g><svg viewBox="0 0 462.8032179630053 125.15685037318073" height="106.96130782642363" width="395.52"><g transform="matrix(1,0,0,1,67.28321796300528,23.392946854619794)"><svg viewBox="0 0 395.52 78.37095666394114" height="78.37095666394114" width="395.52"><g id="textblocktransform"><svg viewBox="0 0 395.52 78.37095666394114" height="78.37095666394114" width="395.52" id="textblock"><g><svg viewBox="0 0 395.52 78.37095666394114" height="78.37095666394114" width="395.52"><g transform="matrix(1,0,0,1,0,0)"><svg width="395.52" viewBox="1 -34.9 183.43 36.349999999999994" height="78.37095666394114" data-palette-color="#50a060"><path d="M6.25-12.7L6.25-12.7 6.3-11.45Q6.3-11.15 6.7-11.15L6.7-11.15Q8.3-11.3 9.5-11.98 10.7-12.65 11.3-13.5L11.3-13.5Q12.5-15.35 12.6-16.7L12.6-16.7 12.65-17.3Q12.65-20 10.5-20L10.5-20Q8.9-20 7.9-18.6L7.9-18.6Q6.25-16.4 6.25-12.7ZM17.15-6.05L17.15-6.05Q17.15-4.15 16.38-2.73 15.6-1.3 14.63-0.63 13.65 0.05 12.35 0.45L12.35 0.45Q10.7 0.95 9.2 0.95L9.2 0.95Q5 0.95 3-2.2 1-5.35 1-10.23 1-15.1 3.48-18.9 5.95-22.7 10.9-22.7L10.9-22.7Q15.4-22.7 17-19.55L17-19.55Q17.65-18.35 17.65-17.28 17.65-16.2 17.55-15.58 17.45-14.95 16.85-13.7 16.25-12.45 15.25-11.45 14.25-10.45 12.1-9.55 9.95-8.65 7.05-8.35L7.05-8.35Q6.65-8.35 6.65-8L6.65-8Q6.65-7.55 6.98-6.68 7.3-5.8 7.7-5.2L7.7-5.2Q8.8-3.8 10.95-3.8L10.95-3.8Q13.1-3.8 14.6-5.2L14.6-5.2Q15.4-5.95 15.9-7.05L15.9-7.05Q16.1-7.45 16.43-7.45 16.75-7.45 16.95-6.9 17.15-6.35 17.15-6.05ZM38.35 1L38.35 1Q37.85 1.35 37.6 1.35L37.6 1.35Q37.05 1.35 36.85 0.9L36.85 0.9Q35.35-2.1 34.35-7.2L34.35-7.2Q34.3-7.4 34.2-7.4L34.2-7.4 33.9-7.2Q32.55-4.8 30.77-2.75 29-0.7 27.9 0.15L27.9 0.15 26.8 1Q26.3 1.45 26 1.45L26 1.45Q25.45 1.45 25.25 0.95L25.25 0.95Q24.15-1.15 22.7-7.2L22.7-7.2 22.25-9.25Q21.3-13.65 20.32-16.3 19.35-18.95 18.85-19.4L18.85-19.4 18.35-19.85Q17.9-20 17.9-20.35L17.9-20.35Q17.9-21.05 19.97-21.85 22.05-22.65 23.2-22.65 24.35-22.65 24.72-21.73 25.1-20.8 25.9-16.55L25.9-16.55Q28-5.35 28.95-5.35L28.95-5.35Q29.25-5.35 29.62-5.88 30-6.4 30.52-7.15 31.05-7.9 31.95-9.75 32.85-11.6 32.85-13L32.85-13Q32.85-13.25 32.5-14.83 32.15-16.4 31.47-17.88 30.8-19.35 30.4-19.55L30.4-19.55Q29.5-20.05 29.5-20.4L29.5-20.4Q29.5-21 31.55-21.83 33.6-22.65 35.25-22.65L35.25-22.65Q36-22.65 36.3-21.75L36.3-21.75Q37.05-19.4 38.1-13.3L38.1-13.3Q39.45-5.5 40.6-5.5L40.6-5.5Q41-5.5 41.8-6.63 42.6-7.75 43.37-9.9 44.15-12.05 44.15-13.58 44.15-15.1 44.02-15.93 43.9-16.75 43.15-17.85 42.4-18.95 41.45-19.13 40.5-19.3 40.5-19.75L40.5-19.75Q40.5-20.45 42.57-21.55 44.65-22.65 46.85-22.65L46.85-22.65Q48.95-22.65 48.95-18.45L48.95-18.45Q48.95-13.2 45.85-7.65 42.75-2.1 38.35 1ZM66.7-15L66.7-15 66.59-8.6Q66.59-1.95 68.05-0.6L68.05-0.6Q68.25-0.4 68.25-0.15L68.25-0.15Q68.25 0.6 65.02 0.6 61.8 0.6 61.6-1.3L61.6-1.3Q61.55-1.75 61.55-3.15L61.55-3.15 61.75-11.15Q61.75-11.5 61.35-11.5L61.35-11.5Q58.95-11.5 56.85-10.15 54.75-8.8 54.75-6.7L54.75-6.7Q54.75-5.6 55.35-4.85 55.95-4.1 56.82-4.1 57.7-4.1 58.27-4.45 58.85-4.8 58.95-4.85L58.95-4.85Q59.8-4.75 59.8-3.08 59.8-1.4 58.25-0.38 56.7 0.65 55 0.65 53.3 0.65 52.07 0.05 50.85-0.55 50.3-1.3 49.75-2.05 49.4-3L49.4-3Q49.05-4.15 49.05-5L49.05-5Q49.05-8.5 51.25-10.6 53.45-12.7 56.9-13.6L56.9-13.6Q61.45-14.5 61.65-15.25L61.65-15.25Q61.8-15.8 61.8-17.1L61.8-17.1Q61.8-19.75 59.1-19.75L59.1-19.75Q57.95-19.75 57.05-19.03 56.15-18.3 56.15-17.2L56.15-17.2 56.45-16Q56.35-15.15 54.65-15L54.65-15 54.1-14.95Q52.6-14.95 51.72-15.7 50.85-16.45 50.85-17.7L50.85-17.7Q50.85-18.5 51.37-19.48 51.9-20.45 52.7-21.05 53.5-21.65 55.17-22.13 56.85-22.6 58.4-22.6 59.95-22.6 60.8-22.5 61.65-22.4 63.12-22.03 64.59-21.65 65.57-20.6 66.55-19.55 66.62-18.38 66.7-17.2 66.7-15ZM84.94-6.85L84.94-6.85Q84.94-4.7 84.12-3.1 83.29-1.5 82.24-0.75 81.19 0 79.74 0.45L79.74 0.45Q77.84 1.05 76.29 1.05L76.29 1.05Q73.04 1.05 70.89-0.23 68.74-1.5 68.74-4.3L68.74-4.3Q68.74-5.95 69.64-7L69.64-7Q71.04-8.55 72.99-8.55L72.99-8.55Q73.59-8.55 73.59-8L73.59-8Q73.59-7.95 73.37-7.23 73.14-6.5 73.14-5.4 73.14-4.3 74.02-3.45 74.89-2.6 76.14-2.6 77.39-2.6 78.14-3.03 78.89-3.45 79.19-4.1L79.19-4.1Q79.64-5 79.64-5.8L79.64-5.8Q79.64-7.25 78.19-8.3 76.74-9.35 74.99-9.95 73.24-10.55 71.79-11.95 70.34-13.35 70.34-15.45L70.34-15.45Q70.34-19.05 72.62-20.85 74.89-22.65 78.79-22.65L78.79-22.65Q80.49-22.65 82.37-22.18 84.24-21.7 84.24-20.58 84.24-19.45 83.87-18.5 83.49-17.55 82.94-17.55L82.94-17.55Q82.64-17.55 82.54-17.78 82.44-18 82.19-18.3 81.94-18.6 80.99-19.07 80.04-19.55 79.37-19.55 78.69-19.55 78.47-19.53 78.24-19.5 77.69-19.38 77.14-19.25 76.69-19L76.69-19Q75.54-18.35 75.54-17.1L75.54-17.1Q75.54-16.3 75.89-15.93 76.24-15.55 76.44-15.35 76.64-15.15 77.14-14.88 77.64-14.6 77.84-14.5 78.04-14.4 78.74-14.08 79.44-13.75 79.64-13.65L79.64-13.65Q84.94-11.15 84.94-6.85ZM86.19-19.5L86.19-19.5 86.34-21.5Q86.39-21.95 87.04-21.95L87.04-21.95 88.79-21.95 88.59-25.95 88.59-26.15Q88.59-27.3 90.34-28.35 92.09-29.4 93.54-29.4L93.54-29.4Q93.99-29.4 93.99-29L93.99-29 93.99-28.95Q93.79-27.6 93.59-22L93.59-22Q95.79-22 96.39-22.1 96.99-22.2 97.04-22.2L97.04-22.2Q97.39-22.2 97.39-21.6 97.39-21 96.84-20.08 96.29-19.15 95.64-19.1L95.64-19.1 93.54-19.1Q93.49-17.4 93.49-13.38 93.49-9.35 93.57-6.75 93.64-4.15 93.74-2.83 93.84-1.5 93.97-0.7 94.09 0.1 94.17 0.45 94.24 0.8 94.24 0.9L94.24 0.9Q94.24 1.4 93.59 1.45L93.59 1.45Q91.64 1.45 89.72 0.9 87.79 0.35 87.79-1L87.79-1Q88.84-9.4 88.84-19.05L88.84-19.05Q87.49-19.05 86.79-18.95L86.79-18.95 86.74-18.95Q86.29-18.95 86.19-19.5ZM102.39-12.7L102.39-12.7 102.44-11.45Q102.44-11.15 102.84-11.15L102.84-11.15Q104.44-11.3 105.64-11.98 106.84-12.65 107.44-13.5L107.44-13.5Q108.64-15.35 108.74-16.7L108.74-16.7 108.79-17.3Q108.79-20 106.64-20L106.64-20Q105.04-20 104.04-18.6L104.04-18.6Q102.39-16.4 102.39-12.7ZM113.29-6.05L113.29-6.05Q113.29-4.15 112.51-2.73 111.74-1.3 110.76-0.63 109.79 0.05 108.49 0.45L108.49 0.45Q106.84 0.95 105.34 0.95L105.34 0.95Q101.14 0.95 99.14-2.2 97.14-5.35 97.14-10.23 97.14-15.1 99.61-18.9 102.09-22.7 107.04-22.7L107.04-22.7Q111.54-22.7 113.14-19.55L113.14-19.55Q113.79-18.35 113.79-17.28 113.79-16.2 113.69-15.58 113.59-14.95 112.99-13.7 112.39-12.45 111.39-11.45 110.39-10.45 108.24-9.55 106.09-8.65 103.19-8.35L103.19-8.35Q102.79-8.35 102.79-8L102.79-8Q102.79-7.55 103.11-6.68 103.44-5.8 103.84-5.2L103.84-5.2Q104.94-3.8 107.09-3.8L107.09-3.8Q109.24-3.8 110.74-5.2L110.74-5.2Q111.54-5.95 112.04-7.05L112.04-7.05Q112.24-7.45 112.56-7.45 112.89-7.45 113.09-6.9 113.29-6.35 113.29-6.05ZM131.78-28.6L131.78-28.6 131.48-10.25Q131.48-1.65 132.03 0.05L132.03 0.05Q132.18 0.35 132.18 0.65L132.18 0.65Q132.18 1.25 130.73 1.25 129.28 1.25 127.51 0.53 125.73-0.2 125.73-1.35L125.73-1.35Q126.73-8.35 126.73-20.05L126.73-20.05 126.53-27.7Q126.43-29.1 125.96-30.1 125.48-31.1 125.03-31.4L125.03-31.4 124.63-31.65Q124.28-31.85 124.28-32.1L124.28-32.1Q124.28-32.8 126.46-33.83 128.63-34.85 130.68-34.85L130.68-34.85Q131.48-34.85 131.58-34.3L131.58-34.3Q131.78-33 131.78-28.6ZM140.33-26.75L140.33-26.75 139.13-26.8Q137.78-26.8 137.38-26.15L137.38-26.15Q137.28-26 137.13-26L137.13-26Q136.48-26 136.48-28.23 136.48-30.45 137.16-31.05 137.83-31.65 139.51-31.65 141.18-31.65 141.78-31.08 142.38-30.5 142.38-29.15 142.38-27.8 141.93-27.28 141.48-26.75 140.33-26.75ZM136.33-1.5L136.33-1.5 136.88-13.15Q136.88-17.3 135.93-18.8L135.93-18.8Q135.63-19.3 135.23-19.55L135.23-19.55Q134.93-19.65 134.93-19.95L134.93-19.95Q134.93-20.85 137.48-21.7 140.03-22.55 141.21-22.55 142.38-22.55 142.43-21.95L142.43-21.95Q142.43-20.95 142.16-16.28 141.88-11.6 141.88-6.45 141.88-1.3 142.48-0.05L142.48-0.05Q142.63 0.2 142.63 0.45L142.63 0.45Q142.63 1.1 140.73 1.1 138.83 1.1 136.83 0.1L136.83 0.1Q136.33-0.15 136.33-1.5ZM145.68 0.35L145.68 0.35Q146.58-5.05 146.58-12.6 146.58-20.15 146.13-22.4L146.13-22.4Q146.13-23.05 147.63-23.05L147.63-23.05Q149.93-23.05 150.68-21.3L150.68-21.3Q150.73-21.15 150.93-21.15 151.13-21.15 151.23-21.25L151.23-21.25Q152.78-22.85 156.03-22.85 159.28-22.85 161.18-21.2 163.08-19.55 163.08-16.4L163.08-16.4Q163.08-14.5 162.75-11 162.43-7.5 162.43-5.8L162.43-5.8Q162.43-1.75 163.78 0.05L163.78 0.05Q163.98 0.3 163.98 0.55L163.98 0.55Q163.98 1.2 162.58 1.2L162.58 1.2Q156.38 1.2 156.38-4.3L156.38-4.3Q156.38-6.4 157.33-10.15 158.28-13.9 158.28-15.85L158.28-15.85Q158.28-19.85 154.98-19.85L154.98-19.85Q153.38-19.85 152.55-18.9 151.73-17.95 151.63-16.73 151.53-15.5 151.53-12.1L151.53-12.1Q151.53-6.9 151.88-3.05L151.88-3.05 151.98-1.95Q151.98-0.55 150.15 0.23 148.33 1 147 1 145.68 1 145.68 0.35ZM176.43-16.2L176.43-16.2Q176.23-16 176.23-15.78 176.23-15.55 177.15-15.35 178.08-15.15 179.18-14.25 180.28-13.35 180.83-12.3L180.83-12.3Q181.88-10.25 181.98-8.7L181.98-8.7 182.03-8.05Q182.28-2.2 184.18-0.05L184.18-0.05Q184.43 0.3 184.43 0.45L184.43 0.45Q184.43 1 183.03 1L183.03 1Q178.83 1 177.68-0.75L177.68-0.75Q177.08-1.45 177.08-5.1L177.08-5.1 177.08-6.35Q177.08-11 175.93-12.8L175.93-12.8Q175.33-13.65 174.45-13.65 173.58-13.65 172.63-12.13 171.68-10.6 171.68-9.55L171.68-9.55Q171.68-5.35 171.88-3.7 172.08-2.05 172.08-2L172.08-2Q172.08-0.55 170.1 0.25 168.13 1.05 166.38 1.05L166.38 1.05Q165.73 1.05 165.73 0.25L165.73 0.25 165.73 0.05Q166.93-6.1 166.93-19.35L166.93-19.35Q166.93-23.7 166.73-26.7L166.73-26.7 166.63-27.7Q166.53-29.1 166.05-30.1 165.58-31.1 165.13-31.4L165.13-31.4 164.73-31.65Q164.38-31.85 164.38-32.1L164.38-32.1Q164.38-32.9 166.78-33.9 169.18-34.9 170.93-34.9L170.93-34.9Q171.73-34.85 171.78-34.3L171.78-34.3Q172.03-32.3 172.03-26.08 172.03-19.85 171.73-16.15L171.73-16.15Q171.73-15.55 171.93-15.55 172.13-15.55 172.55-16.13 172.98-16.7 174.05-17.95 175.13-19.2 176.95-20.85 178.78-22.5 179.9-22.5 181.03-22.5 182.13-21.95 183.23-21.4 183.23-20.9L183.23-20.9 182.68-20.55Q179.83-19.5 176.43-16.2Z" opacity="1" transform="matrix(1,0,0,1,0,0)" fill="#50a060" class="wordmark-text-0" data-fill-palette-color="primary" id="text-0"></path></svg></g></svg></g></svg></g></svg></g><g><svg viewBox="0 0 48.78171599760871 125.15685037318073" height="125.15685037318073" width="48.78171599760871"><g><svg xmlns="http://www.w3.org/2000/svg" xmlns:xlink="http://www.w3.org/1999/xlink" version="1.1" x="0" y="0" viewBox="31.986 3.017 37.013999999999996 94.965" enable-background="new 0 0 100 100" xml:space="preserve" height="125.15685037318073" width="48.78171599760871" class="icon-icon-0" data-fill-palette-color="accent" id="icon-0"><path d="M50.5 71.271C52.996 71.271 55 69.247 55 66.751V49.515C58 48.68 61.271 46.96 63.682 44.473 67.137 40.907 69 36.149 69 31.075V22.035C69 16.962 67.2 12.204 63.746 8.638 60.233 5.013 55.549 3.017 50.462 3.017 45.378 3.017 40.817 5.004 37.265 8.613 33.742 12.192 32 16.959 32 22.035V22.115L31.986 31.117C31.997 36.176 33.813 40.917 37.26 44.472 38.368 45.617 39.556 46.597 40.881 47.405L40.718 22C40.737 16.421 44.947 12.057 50.441 12.057 55.854 12.057 60.001 16.441 60.001 22.036V31.076C60.001 34.924 58.001 38.198 55.001 39.868V34.25C55.001 31.753 52.997 29.73 50.501 29.73S46.001 31.753 46.001 34.25V51.413C43.001 52.216 39.757 53.954 37.248 56.503 33.724 60.081 32 64.848 32 69.924V70.004L31.987 79.007C31.997 84.065 33.814 88.806 37.261 92.361 40.774 95.986 45.467 97.982 50.553 97.982S60.253 95.986 63.766 92.361C67.222 88.796 69 84.038 69 78.964V69.924C69 64.851 67.117 60.093 63.662 56.528 62.549 55.379 61 54.394 60 53.583V78.964C60 84.56 55.842 88.943 50.427 88.943S40.813 84.559 40.813 78.964C40.813 78.938 40.834 78.911 40.833 78.885L40.642 69.889C40.654 65.92 43 62.566 46 60.962V66.752A4.503 4.503 0 0 0 50.5 71.271" fill="#50a060" data-fill-palette-color="accent"></path></svg></g></svg></g></svg></g><defs></defs></svg><rect width="395.52" height="106.96130782642363" fill="none" stroke="none" visibility="hidden"></rect></g></svg></g></svg>